<?xml version="1.0" standalone="no"?>
<!DOCTYPE svg PUBLIC "-//W3C//DTD SVG 20010904//EN"
 "http://www.w3.org/TR/2001/REC-SVG-20010904/DTD/svg10.dtd">
<svg version="1.0" xmlns="http://www.w3.org/2000/svg"
 width="1280.000000pt" height="948.000000pt" viewBox="0 0 1280.000000 948.000000"
 preserveAspectRatio="xMidYMid meet">
<metadata>
Created by potrace 1.15, written by Peter Selinger 2001-2017
</metadata>
<g transform="translate(0.000000,948.000000) scale(0.100000,-0.100000)"
fill="#000000" stroke="none">
<path d="M10490 9464 c-71 -29 -106 -135 -66 -197 10 -14 83 -83 164 -154 947
-828 1596 -1937 1826 -3118 67 -339 87 -546 93 -930 6 -354 -6 -565 -48 -850
-200 -1362 -913 -2598 -2026 -3512 -140 -115 -299 -232 -492 -363 -147 -100
-166 -122 -165 -190 1 -88 75 -150 163 -136 23 3 96 46 206 121 1108 749 1925
1798 2345 3007 327 943 396 1963 199 2933 -257 1265 -941 2416 -1954 3289
-138 119 -170 132 -245 100z"/>
<path d="M2185 9451 c-48 -30 -243 -201 -389 -342 -483 -466 -885 -1010 -1187
-1606 -570 -1126 -747 -2416 -498 -3638 229 -1126 782 -2143 1618 -2975 285
-284 530 -489 843 -708 229 -160 272 -184 325 -179 108 11 167 132 105 217
-10 14 -91 75 -179 135 -575 394 -1027 820 -1416 1334 -603 795 -971 1701
-1086 2671 -37 309 -40 878 -7 1160 77 657 246 1234 527 1805 342 696 799
1282 1423 1825 59 52 112 105 117 118 15 40 10 103 -11 137 -38 61 -126 83
-185 46z"/>
<path d="M9422 8829 c-57 -29 -85 -70 -90 -136 -8 -90 13 -121 150 -225 325
-248 657 -582 898 -903 1209 -1615 1177 -3744 -80 -5315 -366 -458 -872 -890
-1362 -1164 -111 -62 -148 -121 -135 -217 7 -50 49 -107 93 -125 69 -29 120
-19 229 44 678 395 1250 922 1670 1540 757 1113 1002 2434 690 3717 -257 1062
-897 2025 -1803 2713 -127 97 -178 111 -260 71z"/>
<path d="M3244 8834 c-26 -6 -172 -115 -324 -242 -150 -125 -500 -476 -621
-622 -580 -699 -943 -1501 -1068 -2361 -35 -240 -45 -389 -45 -674 1 -291 14
-463 55 -715 137 -837 494 -1609 1058 -2290 127 -153 475 -502 631 -630 229
-190 460 -353 714 -503 97 -57 130 -71 171 -75 103 -8 187 67 187 167 -1 90
-33 127 -187 216 -237 138 -515 338 -730 526 -1259 1101 -1803 2720 -1439
4280 114 490 312 953 592 1384 273 420 615 795 1022 1119 155 124 172 138 191
170 40 66 14 179 -51 226 -30 21 -111 34 -156 24z"/>
<path d="M8773 8000 c-41 -25 -63 -68 -63 -122 0 -57 26 -92 120 -164 325
-247 648 -598 860 -934 374 -591 559 -1253 537 -1915 -14 -417 -85 -759 -237
-1145 -270 -685 -793 -1306 -1439 -1710 -66 -41 -142 -88 -168 -105 -60 -38
-93 -86 -93 -137 0 -85 65 -144 149 -136 101 10 496 274 773 517 731 641 1184
1505 1283 2442 18 169 21 535 5 700 -98 1013 -612 1944 -1440 2604 -63 51
-129 99 -147 108 -43 23 -101 21 -140 -3z"/>
<path d="M3887 7995 c-86 -45 -385 -302 -542 -467 -602 -632 -965 -1411 -1045
-2247 -14 -147 -14 -515 0 -662 38 -398 152 -822 315 -1179 194 -423 448 -784
789 -1125 239 -238 483 -431 765 -601 137 -83 149 -89 201 -89 87 0 140 54
140 144 0 56 -37 95 -157 166 -930 551 -1566 1455 -1738 2470 -54 323 -58 701
-10 1025 131 881 611 1689 1340 2255 123 95 145 124 147 188 2 103 -112 171
-205 122z"/>
<path d="M8155 7173 c-36 -10 -77 -45 -91 -79 -35 -84 -11 -129 124 -235 481
-378 820 -935 921 -1514 119 -684 -66 -1379 -514 -1930 -163 -201 -437 -442
-657 -576 -141 -86 -156 -99 -172 -140 -21 -52 -20 -72 4 -119 26 -50 88 -85
137 -77 44 8 195 96 337 198 749 534 1186 1359 1186 2236 0 411 -89 787 -275
1168 -140 287 -299 508 -530 741 -122 123 -309 284 -363 313 -24 13 -83 20
-107 14z"/>
<path d="M4545 7154 c-117 -66 -440 -370 -576 -544 -289 -368 -480 -783 -559
-1215 -179 -986 224 -1991 1060 -2641 149 -116 365 -248 421 -258 71 -12 159
62 159 135 0 56 -28 99 -91 137 -227 138 -380 255 -543 412 -240 232 -419 485
-549 772 -162 361 -231 737 -206 1123 34 509 218 971 552 1385 84 104 297 312
400 390 127 97 157 154 123 234 -29 69 -128 105 -191 70z"/>
<path d="M7543 6554 c-64 -32 -93 -126 -59 -192 8 -15 60 -65 115 -111 355
-293 567 -673 622 -1115 16 -131 6 -360 -21 -491 -97 -464 -394 -877 -813
-1130 -98 -59 -129 -98 -129 -161 0 -31 7 -56 19 -72 60 -80 132 -88 234 -27
830 499 1197 1434 904 2310 -72 215 -202 448 -349 624 -121 144 -343 345 -411
371 -37 14 -75 12 -112 -6z"/>
<path d="M5120 6539 c-106 -65 -338 -290 -443 -431 -434 -581 -513 -1328 -208
-1972 167 -354 480 -693 821 -888 111 -64 172 -57 233 24 26 34 25 112 -1 148
-10 14 -73 61 -140 106 -157 105 -243 176 -351 290 -685 724 -594 1827 203
2454 74 58 95 90 98 148 4 108 -119 177 -212 121z"/>
<path d="M6165 5841 c-476 -77 -825 -463 -825 -911 0 -252 131 -515 339 -682
316 -253 752 -298 1115 -116 117 58 161 91 261 193 96 98 137 158 191 282 52
120 67 214 62 368 -4 113 -9 143 -38 228 -32 95 -87 200 -137 262 -150 184
-324 296 -553 357 -84 22 -327 33 -415 19z m370 -40 c182 -37 345 -122 474
-245 277 -267 351 -633 196 -973 -111 -242 -348 -430 -633 -504 -112 -29 -294
-35 -410 -15 -279 49 -510 194 -650 409 -186 285 -190 613 -10 914 42 72 175
208 253 260 117 78 270 141 399 162 95 16 285 12 381 -8z"/>
</g>
</svg>
