<svg version="1.1" baseProfile="full" xmlns="http://www.w3.org/2000/svg" xmlns:xlink="http://www.w3.org/1999/xlink" xmlns:rdf="http://www.w3.org/1999/02/22-rdf-syntax-ns#" xmlns:dc="http://purl.org/dc/elements/1.1/" stroke-linecap="round" stroke-linejoin="round" fill-rule="evenodd" width="250.00" height="150.00" viewBox="0 0 5000 3000"><metadata><rdf:RDF><rdf:Description><dc:description>MSS/MilX-Export to SVG</dc:description><dc:publisher>gs-soft AG</dc:publisher></rdf:Description></rdf:RDF></metadata><defs><style type="text/css"><![CDATA[
.bs0 {fill:rgb(255,255,128);stroke:none;}
.ps0 {fill:none;stroke:black;stroke-width:26;}]]></style><filter id="ef0" x="-30%" y="-30%" width="200%" height="200%"><feGaussianBlur in="SourceAlpha" stdDeviation="5" result="gb"/><feFlood result="fl" flood-color="gray"/><feComposite result="cm" in="fl" in2="gb" operator="in"/><feOffset in="cm" dx="76" dy="76"/></filter></defs><g><use xlink:href="#eg0" style="filter:url(#ef0)"/></g><g id="eg0"><g transform="matrix(1.95354 0 0 1.95492 1051.72 51.7241)"><ellipse cx="353" cy="707" rx="353" ry="353" class="bs0"/><ellipse cx="1060" cy="707" rx="353" ry="353" class="bs0"/><ellipse cx="707" cy="353" rx="353" ry="353" class="bs0"/><ellipse cx="707" cy="1060" rx="353" ry="353" class="bs0"/><rect x="354" y="354" width="707" height="707" class="bs0"/><path d="M354.000,354.000 A353.500,353.500 0.000 1,0 354.000,1061.000" fill-rule="nonzero" class="ps0"/><path d="M1061.000,1061.000 A353.500,353.500 0.000 0,0 1061.000,354.000" fill-rule="nonzero" class="ps0"/><path d="M1061.000,354.000 A353.500,353.500 0.000 1,0 354.000,354.000" fill-rule="nonzero" class="ps0"/><path d="M354.000,1061.000 A353.500,353.500 0.000 0,0 1061.000,1061.000" fill-rule="nonzero" class="ps0"/></g></g></svg>