<svg version="1.1" baseProfile="full" xmlns="http://www.w3.org/2000/svg"
     xmlns:rdf="http://www.w3.org/1999/02/22-rdf-syntax-ns#" xmlns:dc="http://purl.org/dc/elements/1.1/"
     stroke-linecap="round" stroke-linejoin="round" fill-rule="evenodd" width="100.00" height="60.00"
     viewBox="0 0 2000 1200"><metadata><rdf:RDF><rdf:Description><dc:description>MSS/MilX-Export to SVG</dc:description><dc:publisher>gs-soft AG</dc:publisher></rdf:Description></rdf:RDF></metadata><defs><style type="text/css"><![CDATA[
.bs0 {fill:rgb(255,255,128);stroke:none;}
.ps0 {fill:none;stroke:black;stroke-width:40;}]]></style></defs><g transform="matrix(0.809322 0 0 0.809894 421.429 21.4286)"><ellipse cx="353" cy="707" rx="353" ry="353" class="bs0"/><ellipse cx="1060" cy="707" rx="353" ry="353" class="bs0"/><ellipse cx="707" cy="353" rx="353" ry="353" class="bs0"/><ellipse cx="707" cy="1060" rx="353" ry="353" class="bs0"/><rect x="354" y="354" width="707" height="707" class="bs0"/><path d="M354.000,354.000 A353.500,353.500 0.000 1,0 354.000,1061.000" fill-rule="nonzero" class="ps0"/><path d="M1061.000,1061.000 A353.500,353.500 0.000 0,0 1061.000,354.000" fill-rule="nonzero" class="ps0"/><path d="M1061.000,354.000 A353.500,353.500 0.000 1,0 354.000,354.000" fill-rule="nonzero" class="ps0"/><path d="M354.000,1061.000 A353.500,353.500 0.000 0,0 1061.000,1061.000" fill-rule="nonzero" class="ps0"/></g></svg>